<?xml version="1.0" standalone="no"?>
<!DOCTYPE svg PUBLIC "-//W3C//DTD SVG 20010904//EN"
 "http://www.w3.org/TR/2001/REC-SVG-20010904/DTD/svg10.dtd">
<svg version="1.0" xmlns="http://www.w3.org/2000/svg"
 width="1436.000000pt" height="604.000000pt" viewBox="0 0 1436.000000 604.000000"
 preserveAspectRatio="xMidYMid meet">

<g transform="translate(0.000000,604.000000) scale(0.100000,-0.100000)"
fill="#000000" stroke="none">
<path d="M615 6034 c-11 -2 -45 -9 -75 -15 -160 -32 -328 -149 -427 -297 -48
-74 -88 -179 -103 -272 -8 -55 -10 -773 -8 -2730 l3 -2655 535 0 535 0 3 2448
2 2447 69 0 69 0 56 -167 c30 -93 341 -1054 691 -2138 349 -1084 647 -2002
661 -2041 77 -218 259 -407 474 -492 144 -57 146 -57 670 -57 l485 0 86 31
c198 71 345 219 412 414 l22 65 3 1368 2 1367 63 0 62 0 384 -1263 c463 -1519
480 -1571 525 -1646 109 -179 294 -301 501 -331 55 -8 223 -10 535 -8 503 5
507 5 645 73 141 69 244 174 315 320 75 155 70 -12 70 2370 l0 2135 84 0 84 0
11 -32 c110 -349 1399 -4354 1417 -4406 57 -160 189 -309 338 -382 153 -75
150 -75 711 -75 561 0 551 -1 705 72 81 39 107 58 180 132 98 99 149 187 180
307 20 76 20 120 20 2231 l0 2153 69 0 69 0 21 -62 c11 -35 367 -1147 791
-2473 424 -1325 776 -2413 781 -2416 6 -3 236 67 512 155 367 118 502 166 501
176 -2 32 -1648 5159 -1675 5218 -37 82 -101 172 -176 245 -101 99 -204 159
-350 204 l-88 28 -470 0 c-421 0 -477 -2 -535 -18 -202 -56 -369 -196 -455
-382 -70 -150 -65 16 -65 -2355 l0 -2141 -67 3 -68 3 -691 2150 c-380 1183
-702 2177 -714 2210 -77 207 -262 394 -469 474 -149 58 -211 63 -709 59 -435
-4 -449 -4 -517 -27 -126 -41 -203 -89 -295 -181 -69 -68 -94 -102 -127 -170
-85 -174 -77 63 -80 -2362 l-3 -2158 -55 0 -54 0 -26 88 c-563 1856 -800 2616
-840 2697 -81 164 -206 290 -370 371 -169 83 -194 87 -648 92 -420 4 -520 -2
-632 -39 -194 -65 -351 -222 -432 -431 l-28 -73 -3 -1352 -2 -1353 -63 0 -62
0 -705 2183 c-388 1200 -717 2208 -732 2240 -102 215 -285 370 -523 443 l-90
28 -450 2 c-247 1 -459 0 -470 -2z"/>
<path d="M3992 5811 c-96 -33 -175 -115 -206 -213 -15 -49 -17 -91 -14 -324 3
-252 4 -272 25 -316 32 -70 103 -141 173 -172 l59 -27 608 3 608 3 42 23 c96
51 153 123 179 223 12 49 15 109 12 312 l-3 253 -33 66 c-36 73 -86 123 -161
160 l-46 23 -595 2 c-556 3 -598 1 -648 -16z"/>
</g>
</svg>
